<?xml version="1.0" encoding="utf-8"?>
<!-- Generator: Adobe Illustrator 27.8.1, SVG Export Plug-In . SVG Version: 6.00 Build 0)  -->
<svg version="1.1" id="Camada_1" xmlns="http://www.w3.org/2000/svg" xmlns:xlink="http://www.w3.org/1999/xlink" x="0px" y="0px"
	 viewBox="0 0 88.4 29.5" style="enable-background:new 0 0 88.4 29.5;" xml:space="preserve">
<style type="text/css">
	.st0{fill:#777777;}
	.st1{fill:#449C4D;}
	.st2{fill:#76C47D;}
	.st3{fill:#6EB773;}
	.st4{fill:#E7E7E7;}
	.st5{fill:#FFFFFF;}
	.st6{fill:#3D9047;}
</style>
<g>
	<path class="st0" d="M49.2,10.2c0,2.7-2.1,4.6-4.7,4.6c-2.6,0-4.7-2-4.7-4.6c0-2.7,2.1-4.6,4.7-4.6C47.1,5.6,49.2,7.5,49.2,10.2z
		 M47.2,10.2c0-1.6-1.2-2.8-2.6-2.8c-1.4,0-2.6,1.1-2.6,2.8c0,1.6,1.2,2.8,2.6,2.8C45.9,13,47.2,11.8,47.2,10.2z"/>
	<path class="st0" d="M59.2,10.2c0,2.7-2.1,4.6-4.7,4.6c-2.6,0-4.7-2-4.7-4.6c0-2.7,2.1-4.6,4.7-4.6C57.2,5.6,59.2,7.5,59.2,10.2z
		 M57.2,10.2c0-1.6-1.2-2.8-2.6-2.8c-1.4,0-2.6,1.1-2.6,2.8c0,1.6,1.2,2.8,2.6,2.8C56,13,57.2,11.8,57.2,10.2z"/>
	<path class="st0" d="M68.9,5.9v8.3c0,3.4-2,4.8-4.4,4.8c-2.3,0-3.6-1.5-4.1-2.7l1.8-0.7c0.3,0.7,1.1,1.6,2.3,1.6
		c1.5,0,2.5-0.9,2.5-2.7v-0.6h-0.1c-0.5,0.6-1.3,1-2.4,1c-2.3,0-4.5-2-4.5-4.6c0-2.6,2.1-4.6,4.5-4.6c1.1,0,2,0.5,2.4,1h0.1V5.9
		H68.9z M67.1,10.2c0-1.6-1.1-2.8-2.5-2.8c-1.4,0-2.6,1.2-2.6,2.8c0,1.6,1.2,2.8,2.6,2.8C66,13,67.1,11.8,67.1,10.2z"/>
	<path class="st0" d="M72.1,1v13.5h-2V1H72.1z"/>
	<path class="st0" d="M79.9,11.7l1.6,1c-0.5,0.7-1.7,2-3.9,2c-2.7,0-4.6-2-4.6-4.6c0-2.7,2-4.6,4.4-4.6c2.4,0,3.6,1.9,4,2.9l0.2,0.5
		l-6.2,2.5c0.5,0.9,1.2,1.4,2.3,1.4C78.6,13,79.3,12.5,79.9,11.7z M75,10.1l4.2-1.7c-0.2-0.6-0.9-1-1.7-1C76.4,7.4,74.9,8.3,75,10.1
		z"/>
	<path class="st0" d="M32.3,9v-2h6.6c0.1,0.3,0.1,0.7,0.1,1.2c0,1.5-0.4,3.3-1.7,4.6c-1.3,1.3-2.9,2-5,2c-4,0-7.3-3.2-7.3-7.1
		c0-3.9,3.4-7.2,7.3-7.2c2.2,0,3.8,0.8,5,2l-1.4,1.4c-0.9-0.8-2-1.4-3.6-1.4c-2.9,0-5.2,2.3-5.2,5.2s2.3,5.2,5.2,5.2
		c1.9,0,2.9-0.7,3.6-1.4c0.6-0.6,0.9-1.4,1.1-2.4L32.3,9z"/>
</g>
<g>
	<path class="st0" d="M27.4,27.2c-0.3,0-0.6,0-0.9-0.1c-0.3-0.1-0.6-0.2-0.8-0.4c-0.2-0.2-0.5-0.4-0.7-0.7c-0.2-0.3-0.3-0.6-0.4-0.9
		l1.2-0.5c0,0.2,0.1,0.4,0.2,0.6c0.1,0.2,0.2,0.3,0.4,0.5c0.1,0.1,0.3,0.2,0.5,0.3C27,26,27.2,26,27.4,26c0.2,0,0.4,0,0.5-0.1
		c0.2,0,0.3-0.1,0.4-0.2c0.1-0.1,0.2-0.2,0.3-0.3c0.1-0.1,0.1-0.3,0.1-0.5c0-0.2,0-0.3-0.1-0.4c-0.1-0.1-0.1-0.2-0.3-0.4
		c-0.1-0.1-0.3-0.2-0.5-0.3c-0.2-0.1-0.4-0.2-0.7-0.3l-0.5-0.2c-0.2-0.1-0.4-0.2-0.7-0.3c-0.2-0.1-0.4-0.3-0.6-0.4
		c-0.2-0.2-0.3-0.4-0.4-0.6c-0.1-0.2-0.2-0.5-0.2-0.8c0-0.3,0.1-0.6,0.2-0.8c0.1-0.3,0.3-0.5,0.5-0.7c0.2-0.2,0.5-0.4,0.8-0.5
		c0.3-0.1,0.6-0.2,1-0.2c0.4,0,0.7,0,1,0.2c0.3,0.1,0.5,0.2,0.7,0.4c0.2,0.2,0.4,0.3,0.5,0.5c0.1,0.2,0.2,0.4,0.3,0.5l-1.1,0.5
		c0-0.1-0.1-0.2-0.2-0.3c-0.1-0.1-0.2-0.2-0.3-0.3c-0.1-0.1-0.2-0.2-0.4-0.2c-0.1-0.1-0.3-0.1-0.5-0.1c-0.2,0-0.3,0-0.5,0.1
		c-0.1,0-0.3,0.1-0.4,0.2c-0.1,0.1-0.2,0.2-0.3,0.3c-0.1,0.1-0.1,0.2-0.1,0.4c0,0.3,0.1,0.5,0.3,0.7c0.2,0.2,0.6,0.3,1,0.5l0.5,0.2
		c0.3,0.1,0.6,0.2,0.8,0.4c0.3,0.1,0.5,0.3,0.7,0.5c0.2,0.2,0.3,0.4,0.4,0.7c0.1,0.3,0.2,0.6,0.2,0.9c0,0.4-0.1,0.8-0.2,1
		c-0.2,0.3-0.4,0.5-0.6,0.7c-0.3,0.2-0.5,0.3-0.9,0.4C28,27.1,27.7,27.2,27.4,27.2z"/>
	<path class="st0" d="M34.1,26.3L34.1,26.3c-0.2,0.2-0.4,0.4-0.7,0.6c-0.3,0.2-0.6,0.3-1,0.3c-0.3,0-0.6,0-0.8-0.1
		c-0.2-0.1-0.5-0.2-0.6-0.4c-0.2-0.2-0.3-0.4-0.4-0.6c-0.1-0.2-0.2-0.5-0.2-0.7c0-0.3,0-0.5,0.2-0.8c0.1-0.2,0.3-0.4,0.5-0.6
		c0.2-0.1,0.4-0.3,0.7-0.4c0.3-0.1,0.6-0.1,0.9-0.1c0.4,0,0.7,0,0.9,0.1c0.2,0.1,0.4,0.1,0.5,0.2v-0.2c0-0.2,0-0.3-0.1-0.4
		c-0.1-0.1-0.2-0.3-0.3-0.4c-0.1-0.1-0.3-0.2-0.4-0.2c-0.1,0-0.3-0.1-0.5-0.1c-0.3,0-0.5,0-0.7,0.2c-0.2,0.1-0.4,0.3-0.6,0.5l-1-0.6
		c0.3-0.3,0.6-0.6,1-0.8c0.4-0.2,0.8-0.3,1.3-0.3c0.8,0,1.4,0.2,1.9,0.6c0.4,0.4,0.7,0.9,0.7,1.7V27h-1.2V26.3z M34.1,24.8
		c-0.2-0.1-0.3-0.2-0.5-0.2c-0.2-0.1-0.4-0.1-0.7-0.1c-0.4,0-0.7,0.1-0.9,0.3c-0.2,0.2-0.3,0.4-0.3,0.6c0,0.1,0,0.2,0.1,0.3
		c0.1,0.1,0.1,0.2,0.2,0.3c0.1,0.1,0.2,0.1,0.3,0.2c0.1,0,0.2,0,0.4,0c0.2,0,0.4,0,0.6-0.1c0.2-0.1,0.3-0.2,0.5-0.3
		c0.1-0.1,0.2-0.3,0.3-0.4C34.1,25.1,34.1,25,34.1,24.8z"/>
	<path class="st0" d="M38.5,19.1c0.2,0,0.4,0,0.5,0c0.2,0,0.3,0.1,0.4,0.1l-0.3,1.1c-0.1,0-0.2-0.1-0.2-0.1c-0.1,0-0.2,0-0.3,0
		c-0.2,0-0.4,0.1-0.5,0.2c-0.1,0.1-0.2,0.4-0.2,0.6v0.6h1.4v1.1h-1.4V27h-1.2v-4.3h-1v-1.1h1V21c0-0.3,0-0.6,0.1-0.8
		c0.1-0.2,0.2-0.4,0.4-0.6c0.2-0.2,0.4-0.3,0.6-0.4C38,19.1,38.2,19.1,38.5,19.1z"/>
	<path class="st0" d="M44.4,25.7c-0.2,0.4-0.5,0.8-1,1c-0.4,0.3-0.9,0.4-1.5,0.4c-0.4,0-0.8-0.1-1.1-0.2c-0.3-0.1-0.6-0.3-0.9-0.6
		c-0.2-0.3-0.4-0.6-0.6-0.9c-0.1-0.3-0.2-0.7-0.2-1.1c0-0.4,0.1-0.8,0.2-1.1c0.1-0.3,0.3-0.7,0.6-0.9c0.2-0.3,0.5-0.5,0.9-0.6
		c0.3-0.1,0.7-0.2,1.1-0.2c0.4,0,0.8,0.1,1.1,0.2c0.3,0.1,0.6,0.3,0.8,0.6c0.2,0.2,0.4,0.5,0.5,0.9c0.1,0.3,0.2,0.7,0.2,1.1
		c0,0,0,0.1,0,0.1s0,0.1,0,0.1c0,0,0,0.1,0,0.1h-4.2c0,0.3,0.1,0.5,0.2,0.7c0.1,0.2,0.2,0.3,0.4,0.5c0.1,0.1,0.3,0.2,0.5,0.3
		c0.2,0.1,0.4,0.1,0.5,0.1c0.3,0,0.6-0.1,0.9-0.2c0.2-0.2,0.4-0.4,0.6-0.6L44.4,25.7z M43.3,23.7c0-0.1,0-0.2-0.1-0.4
		c0-0.1-0.1-0.3-0.2-0.4c-0.1-0.1-0.3-0.2-0.4-0.3c-0.2-0.1-0.4-0.1-0.7-0.1c-0.3,0-0.7,0.1-0.9,0.3s-0.4,0.5-0.5,0.8H43.3z"/>
	<path class="st0" d="M47.1,19.2h3c0.3,0,0.6,0,0.9,0.2c0.3,0.1,0.5,0.2,0.7,0.4c0.2,0.2,0.4,0.4,0.5,0.7c0.1,0.3,0.2,0.5,0.2,0.8
		c0,0.4-0.1,0.7-0.3,1c-0.2,0.3-0.5,0.5-0.8,0.6V23c0.4,0.1,0.7,0.4,1,0.7c0.2,0.3,0.4,0.7,0.4,1.1c0,0.3-0.1,0.6-0.2,0.9
		c-0.1,0.3-0.3,0.5-0.5,0.7c-0.2,0.2-0.5,0.3-0.8,0.4c-0.3,0.1-0.6,0.2-1,0.2h-3.1V19.2z M50.1,22.5c0.2,0,0.3,0,0.5-0.1
		c0.1-0.1,0.3-0.1,0.4-0.2c0.1-0.1,0.2-0.2,0.2-0.3c0-0.1,0.1-0.3,0.1-0.4s0-0.3-0.1-0.4c0-0.1-0.1-0.2-0.2-0.3
		c-0.1-0.1-0.2-0.2-0.3-0.2c-0.1-0.1-0.3-0.1-0.5-0.1h-1.7v2.1L50.1,22.5L50.1,22.5z M50.2,25.8c0.2,0,0.4,0,0.5-0.1
		c0.1-0.1,0.3-0.1,0.4-0.3c0.1-0.1,0.2-0.2,0.2-0.4c0-0.1,0.1-0.3,0.1-0.4c0-0.1,0-0.3-0.1-0.4c0-0.1-0.1-0.3-0.2-0.4
		c-0.1-0.1-0.2-0.2-0.4-0.3c-0.2-0.1-0.3-0.1-0.5-0.1h-1.8v2.3L50.2,25.8L50.2,25.8z"/>
	<path class="st0" d="M53.3,21.7h1.2v0.8h0.1c0.1-0.1,0.1-0.3,0.3-0.4c0.1-0.1,0.2-0.2,0.4-0.3c0.1-0.1,0.3-0.1,0.4-0.2
		c0.2,0,0.3-0.1,0.5-0.1c0.2,0,0.3,0,0.4,0c0.1,0,0.2,0.1,0.3,0.1l-0.3,1.1c-0.1,0-0.2-0.1-0.3-0.1c-0.1,0-0.2,0-0.4,0
		c-0.2,0-0.4,0-0.5,0.1c-0.2,0.1-0.3,0.2-0.4,0.3c-0.1,0.1-0.2,0.3-0.3,0.5c-0.1,0.2-0.1,0.4-0.1,0.6V27h-1.2V21.7z"/>
	<path class="st0" d="M59.3,21.5c0.4,0,0.8,0.1,1.1,0.2c0.3,0.1,0.6,0.3,0.9,0.6c0.2,0.3,0.4,0.6,0.6,0.9c0.1,0.3,0.2,0.7,0.2,1.1
		s-0.1,0.8-0.2,1.1c-0.1,0.3-0.3,0.7-0.6,0.9c-0.2,0.3-0.5,0.5-0.9,0.6c-0.3,0.1-0.7,0.2-1.1,0.2c-0.4,0-0.8-0.1-1.1-0.2
		c-0.3-0.1-0.6-0.3-0.9-0.6c-0.2-0.3-0.4-0.6-0.6-0.9c-0.1-0.3-0.2-0.7-0.2-1.1s0.1-0.8,0.2-1.1c0.1-0.3,0.3-0.7,0.6-0.9
		c0.2-0.3,0.5-0.5,0.9-0.6C58.5,21.6,58.8,21.5,59.3,21.5z M59.3,26c0.2,0,0.4,0,0.6-0.1c0.2-0.1,0.4-0.2,0.5-0.3
		c0.1-0.1,0.3-0.3,0.4-0.5c0.1-0.2,0.1-0.5,0.1-0.7c0-0.3,0-0.5-0.1-0.7c-0.1-0.2-0.2-0.4-0.4-0.5c-0.1-0.1-0.3-0.3-0.5-0.3
		c-0.2-0.1-0.4-0.1-0.6-0.1c-0.2,0-0.4,0-0.6,0.1c-0.2,0.1-0.4,0.2-0.5,0.3c-0.1,0.1-0.3,0.3-0.4,0.5c-0.1,0.2-0.1,0.5-0.1,0.7
		c0,0.3,0,0.5,0.1,0.7c0.1,0.2,0.2,0.4,0.4,0.5c0.1,0.1,0.3,0.3,0.5,0.3C58.9,26,59.1,26,59.3,26z"/>
	<path class="st0" d="M61.9,21.7h1.3l1.1,3.7h0l1.2-3.7h1.3l1.2,3.7h0l1-3.7h1.3L68.7,27h-1.3l-1.2-3.7h0L65,27h-1.3L61.9,21.7z"/>
	<path class="st0" d="M72.7,27.2c-0.3,0-0.6,0-0.9-0.1c-0.3-0.1-0.5-0.2-0.7-0.3c-0.2-0.1-0.4-0.3-0.5-0.5c-0.1-0.2-0.2-0.4-0.3-0.6
		l1.1-0.5c0.1,0.3,0.3,0.5,0.5,0.7c0.2,0.1,0.5,0.2,0.8,0.2c0.3,0,0.5-0.1,0.7-0.2c0.2-0.1,0.3-0.3,0.3-0.4c0-0.1-0.1-0.3-0.2-0.4
		c-0.1-0.1-0.4-0.2-0.7-0.3L72,24.6c-0.2,0-0.3-0.1-0.5-0.2c-0.2-0.1-0.3-0.2-0.5-0.3c-0.1-0.1-0.3-0.3-0.4-0.4
		c-0.1-0.2-0.1-0.4-0.1-0.6c0-0.3,0-0.5,0.2-0.7c0.1-0.2,0.3-0.4,0.5-0.5c0.2-0.1,0.4-0.2,0.7-0.3c0.3-0.1,0.5-0.1,0.8-0.1
		c0.2,0,0.5,0,0.7,0.1c0.2,0,0.4,0.1,0.6,0.2c0.2,0.1,0.4,0.2,0.5,0.4c0.1,0.2,0.3,0.3,0.4,0.6l-1.1,0.4c-0.1-0.2-0.3-0.4-0.5-0.5
		c-0.2-0.1-0.4-0.2-0.7-0.2c-0.1,0-0.2,0-0.3,0c-0.1,0-0.2,0.1-0.3,0.1c-0.1,0-0.1,0.1-0.2,0.2c0,0.1-0.1,0.1-0.1,0.2
		c0,0.1,0.1,0.3,0.2,0.3c0.1,0.1,0.3,0.2,0.6,0.2l0.8,0.2c0.6,0.1,1,0.3,1.2,0.6c0.3,0.3,0.4,0.6,0.4,1c0,0.2,0,0.5-0.2,0.7
		c-0.1,0.2-0.3,0.4-0.5,0.5c-0.2,0.2-0.4,0.3-0.7,0.4C73.3,27.1,73,27.2,72.7,27.2z"/>
	<path class="st0" d="M76,20.7c-0.2,0-0.4-0.1-0.6-0.2c-0.2-0.2-0.2-0.4-0.2-0.6c0-0.2,0.1-0.4,0.2-0.6c0.2-0.2,0.4-0.2,0.6-0.2
		c0.2,0,0.4,0.1,0.6,0.2c0.2,0.2,0.2,0.4,0.2,0.6c0,0.2-0.1,0.4-0.2,0.6C76.4,20.7,76.2,20.7,76,20.7z M75.4,27v-5.3h1.2V27H75.4z"
		/>
	<path class="st0" d="M78.7,22.4L78.7,22.4c0.2-0.3,0.5-0.5,0.8-0.6c0.3-0.2,0.6-0.3,1-0.3c0.7,0,1.2,0.2,1.5,0.6
		c0.3,0.4,0.5,0.9,0.5,1.6V27h-1.2v-3.1c0-0.5-0.1-0.8-0.3-1c-0.2-0.2-0.5-0.3-0.9-0.3c-0.2,0-0.4,0-0.6,0.1
		c-0.2,0.1-0.3,0.2-0.4,0.4c-0.1,0.1-0.2,0.3-0.3,0.5c-0.1,0.2-0.1,0.4-0.1,0.6V27h-1.2v-5.3h1.2L78.7,22.4L78.7,22.4z"/>
	<path class="st0" d="M85.6,29.5c-0.4,0-0.7,0-1-0.1c-0.3-0.1-0.5-0.2-0.8-0.4c-0.2-0.1-0.4-0.3-0.5-0.5c-0.1-0.2-0.2-0.4-0.3-0.5
		l1.2-0.5c0.1,0.3,0.3,0.5,0.5,0.7c0.2,0.2,0.5,0.3,0.9,0.3c0.5,0,0.9-0.1,1.2-0.4c0.3-0.3,0.4-0.7,0.4-1.2v-0.4h-0.1
		c-0.2,0.2-0.4,0.4-0.7,0.6c-0.3,0.2-0.6,0.2-1,0.2c-0.3,0-0.6-0.1-1-0.2c-0.3-0.1-0.6-0.3-0.8-0.6c-0.2-0.2-0.4-0.6-0.6-0.9
		c-0.1-0.4-0.2-0.7-0.2-1.2c0-0.4,0.1-0.8,0.2-1.2c0.1-0.3,0.3-0.7,0.6-0.9c0.2-0.2,0.5-0.4,0.8-0.6c0.3-0.1,0.6-0.2,1-0.2
		c0.4,0,0.7,0.1,1,0.2c0.3,0.2,0.5,0.4,0.7,0.6h0.1v-0.7h1.2v5c0,0.5-0.1,0.9-0.2,1.2c-0.1,0.4-0.3,0.7-0.6,0.9
		c-0.2,0.2-0.5,0.4-0.9,0.5C86.4,29.5,86,29.5,85.6,29.5z M85.7,26c0.2,0,0.4,0,0.6-0.1c0.2-0.1,0.4-0.2,0.5-0.3
		c0.1-0.1,0.3-0.3,0.3-0.5c0.1-0.2,0.1-0.5,0.1-0.8c0-0.3,0-0.5-0.1-0.7c-0.1-0.2-0.2-0.4-0.3-0.5c-0.1-0.1-0.3-0.3-0.5-0.3
		c-0.2-0.1-0.4-0.1-0.6-0.1c-0.2,0-0.4,0-0.6,0.1c-0.2,0.1-0.4,0.2-0.5,0.3c-0.1,0.1-0.3,0.3-0.3,0.5c-0.1,0.2-0.1,0.5-0.1,0.7
		c0,0.3,0,0.5,0.1,0.7c0.1,0.2,0.2,0.4,0.3,0.5c0.1,0.1,0.3,0.3,0.5,0.3C85.3,26,85.4,26,85.7,26z"/>
</g>
<path class="st1" d="M10.6,4h10.6v9.5c0,11.1-10.6,16.1-10.6,16.1S0,24.5,0,13.4V4H10.6z"/>
<path class="st2" d="M10.6,4v25.6c0,0-10.6-5-10.6-16.1V4H10.6z"/>
<path class="st3" d="M21.3,4H0v0.4h21.3V4z"/>
<path class="st4" d="M19.5,0H1.7C0.8,0,0,0.8,0,1.7V4h21.3V1.7C21.3,0.8,20.5,0,19.5,0z"/>
<path class="st5" d="M2.4,2.6c0.4,0,0.7-0.3,0.7-0.7S2.8,1.3,2.4,1.3S1.8,1.6,1.8,2S2.1,2.6,2.4,2.6z"/>
<path class="st5" d="M4.7,2.6C5,2.6,5.3,2.3,5.3,2S5,1.3,4.7,1.3C4.3,1.3,4,1.6,4,2S4.3,2.6,4.7,2.6z"/>
<path class="st4" d="M10.6,15.4c2.1,0,3.7-1.7,3.7-3.7c0-2-1.7-3.7-3.7-3.7c-2.1,0-3.7,1.7-3.7,3.7C6.9,13.7,8.6,15.4,10.6,15.4z"/>
<path class="st4" d="M10.6,18.8c1.6,0,3.2,0.4,4.5,1.1c0.2-0.4,0.3-0.8,0.5-1.2c-1.5-0.8-3.2-1.2-5-1.2c-1.8,0-3.5,0.4-5,1.2
	C5.8,19.2,6,19.6,6.1,20C7.5,19.2,9,18.8,10.6,18.8z"/>
<path class="st4" d="M10.6,21.1c1.2,0,2.4,0.3,3.4,0.9c0.2-0.3,0.5-0.7,0.7-1.1c-1.2-0.7-2.6-1-4-1c-1.5,0-2.9,0.4-4,1
	C6.8,21.3,7,21.7,7.3,22C8.3,21.5,9.4,21.1,10.6,21.1z"/>
<path class="st4" d="M10.6,25.4c0,0,1.4-0.8,2.8-2.6c-0.8-0.4-1.8-0.7-2.8-0.7c-1,0-1.9,0.2-2.8,0.7C9.3,24.6,10.6,25.4,10.6,25.4z"
	/>
<path class="st6" d="M21.3,4H10.6v0.4h10.6V4z"/>
</svg>
